<?xml version="1.0" encoding="UTF-8"?>
<svg id="Layer_11" data-name="Layer 11" xmlns="http://www.w3.org/2000/svg" xmlns:xlink="http://www.w3.org/1999/xlink" viewBox="0 0 792 792">
  <defs>
    <style>
      .cls-1 {
        fill: url(#linear-gradient-12);
      }

      .cls-1, .cls-2, .cls-3, .cls-4, .cls-5, .cls-6, .cls-7, .cls-8, .cls-9, .cls-10, .cls-11, .cls-12, .cls-13, .cls-14, .cls-15, .cls-16, .cls-17, .cls-18, .cls-19, .cls-20, .cls-21, .cls-22, .cls-23 {
        stroke-width: 0px;
      }

      .cls-2 {
        fill: url(#linear-gradient-17);
      }

      .cls-3 {
        fill: url(#linear-gradient-19);
      }

      .cls-4 {
        fill: url(#linear-gradient);
      }

      .cls-5 {
        fill: url(#linear-gradient-21);
      }

      .cls-6 {
        fill: url(#linear-gradient-6);
      }

      .cls-7 {
        fill: url(#linear-gradient-15);
      }

      .cls-8 {
        fill: url(#linear-gradient-11);
      }

      .cls-9 {
        fill: url(#linear-gradient-5);
      }

      .cls-10 {
        fill: url(#linear-gradient-13);
      }

      .cls-11 {
        fill: url(#linear-gradient-23);
      }

      .cls-12 {
        fill: url(#linear-gradient-16);
      }

      .cls-13 {
        fill: url(#linear-gradient-22);
      }

      .cls-14 {
        fill: url(#linear-gradient-20);
      }

      .cls-15 {
        fill: url(#linear-gradient-14);
      }

      .cls-16 {
        fill: url(#linear-gradient-2);
      }

      .cls-17 {
        fill: url(#linear-gradient-7);
      }

      .cls-18 {
        fill: url(#linear-gradient-3);
      }

      .cls-19 {
        fill: url(#linear-gradient-9);
      }

      .cls-20 {
        fill: url(#linear-gradient-8);
      }

      .cls-21 {
        fill: url(#linear-gradient-18);
      }

      .cls-22 {
        fill: url(#linear-gradient-10);
      }

      .cls-23 {
        fill: url(#linear-gradient-4);
      }
    </style>
    <linearGradient id="linear-gradient" x1="-79.622313799319272" y1="197.729711106692776" x2="542.95046532102549" y2="744.584179252889953" gradientUnits="userSpaceOnUse">
      <stop offset=".035887316476932" stop-color="#bfe3f8"/>
      <stop offset=".102714005919846" stop-color="#75b7e5"/>
      <stop offset=".237349119629282" stop-color="#428bca"/>
      <stop offset=".607384609343155" stop-color="#255ba9"/>
      <stop offset=".933664177968873" stop-color="#1f448d"/>
    </linearGradient>
    <linearGradient id="linear-gradient-2" x1="65.627576218511422" y1="32.368297855598939" x2="688.200355338862209" y2="579.22276600180146" gradientUnits="userSpaceOnUse">
      <stop offset=".096256684491979" stop-color="#bfe3f8"/>
      <stop offset=".305535260368796" stop-color="#75b7e5"/>
      <stop offset=".666041246709977" stop-color="#428bca"/>
      <stop offset=".768114234664073" stop-color="#255ba9"/>
      <stop offset=".811408740385132" stop-color="#1f448d"/>
    </linearGradient>
    <linearGradient id="linear-gradient-3" x1="262.245550631527294" y1="-191.473703783852216" x2="884.818329751874899" y2="355.380764362347463" gradientUnits="userSpaceOnUse">
      <stop offset=".096256684491979" stop-color="#bfe3f8"/>
      <stop offset=".305535260368796" stop-color="#75b7e5"/>
      <stop offset=".542462485458067" stop-color="#428bca"/>
      <stop offset=".800953264513735" stop-color="#255ba9"/>
      <stop offset="1" stop-color="#1f448d"/>
    </linearGradient>
    <linearGradient id="linear-gradient-4" x1="161.131846236232377" y1="-81.850673999834726" x2="808.360382782281022" y2="432.073340113919585" gradientUnits="userSpaceOnUse">
      <stop offset=".096256684491979" stop-color="#bfe3f8"/>
      <stop offset=".217930404818362" stop-color="#75b7e5"/>
      <stop offset=".693749390495717" stop-color="#428bca"/>
      <stop offset=".874331550802139" stop-color="#255ba9"/>
      <stop offset="1" stop-color="#1f448d"/>
    </linearGradient>
    <linearGradient id="linear-gradient-5" x1="106.899768931501967" y1="28.505999966596391" x2="126.129816163092585" y2="763.254054604088424" gradientUnits="userSpaceOnUse">
      <stop offset=".086553807942098" stop-color="#bfe3f8"/>
      <stop offset=".296764571313124" stop-color="#75b7e5"/>
      <stop offset=".666041246709977" stop-color="#428bca"/>
      <stop offset=".874331550802139" stop-color="#255ba9"/>
      <stop offset="1" stop-color="#1f448d"/>
    </linearGradient>
    <linearGradient id="linear-gradient-6" x1="70.457667853179373" y1="201.136914234177311" x2="442.306424481831357" y2="674.410654411050018" gradientUnits="userSpaceOnUse">
      <stop offset="0" stop-color="#75b7e5"/>
      <stop offset=".242491418835511" stop-color="#428bca"/>
      <stop offset=".548084888627756" stop-color="#3d81c3"/>
      <stop offset=".918644736721154" stop-color="#255ba9"/>
      <stop offset="1" stop-color="#1f448d"/>
    </linearGradient>
    <linearGradient id="linear-gradient-7" x1="273.55270164401918" y1="245.233196022513766" x2="571.436093756921878" y2="469.042024349748601" gradientUnits="userSpaceOnUse">
      <stop offset="0" stop-color="#bfe3f8"/>
      <stop offset=".305535260368796" stop-color="#75b7e5"/>
      <stop offset=".596522530132437" stop-color="#428bca"/>
      <stop offset=".796898801226638" stop-color="#255ba9"/>
      <stop offset=".856264431576434" stop-color="#2457a3"/>
      <stop offset="1" stop-color="#1f448d"/>
    </linearGradient>
    <linearGradient id="linear-gradient-8" x1="551.407164562364414" y1="69.084994723910313" x2="760.533928205114421" y2="353.529443356734475" gradientUnits="userSpaceOnUse">
      <stop offset="0" stop-color="#75b7e5"/>
      <stop offset=".046676212747115" stop-color="#428bca"/>
      <stop offset=".120888403572577" stop-color="#3d81c3"/>
      <stop offset=".572517589855067" stop-color="#255ba9"/>
      <stop offset="1" stop-color="#1f448d"/>
    </linearGradient>
    <linearGradient id="linear-gradient-9" x1="134.161212818960848" y1="147.894601585241617" x2="789.430660671765395" y2="147.894601585241617" gradientUnits="userSpaceOnUse">
      <stop offset="0" stop-color="#75b7e5"/>
      <stop offset=".29117684619981" stop-color="#428bca"/>
      <stop offset=".681244441481588" stop-color="#3d81c3"/>
      <stop offset=".96615274775323" stop-color="#255ba9"/>
      <stop offset="1" stop-color="#1f448d"/>
    </linearGradient>
    <linearGradient id="linear-gradient-10" x1="71.745243027073229" y1="135.746633309007848" x2="338.562148364364191" y2="361.699688279305292" gradientUnits="userSpaceOnUse">
      <stop offset="0" stop-color="#bfe3f8"/>
      <stop offset=".238612909832832" stop-color="#75b7e5"/>
      <stop offset=".596522530132437" stop-color="#428bca"/>
      <stop offset=".799465240641711" stop-color="#255ba9"/>
      <stop offset="1" stop-color="#1f448d"/>
    </linearGradient>
    <linearGradient id="linear-gradient-11" x1="482.541752104198167" y1="572.216383193828733" x2="92.332043698078792" y2="250.113092065875492" gradientUnits="userSpaceOnUse">
      <stop offset="0" stop-color="#bfe3f8"/>
      <stop offset=".063289139435179" stop-color="#75b7e5"/>
      <stop offset=".083909893598574" stop-color="#5096d1"/>
      <stop offset=".143229356049641" stop-color="#428bca"/>
      <stop offset=".618090261386318" stop-color="#3573b9"/>
      <stop offset=".834961243614749" stop-color="#255ba9"/>
    </linearGradient>
    <linearGradient id="linear-gradient-12" x1="705.097783966799398" y1="562.312762638353888" x2="314.888075560641539" y2="240.209471510368871" gradientUnits="userSpaceOnUse">
      <stop offset=".026009310169374" stop-color="#bfe3f8"/>
      <stop offset=".317843559927813" stop-color="#75b7e5"/>
      <stop offset=".539462300607125" stop-color="#428bca"/>
      <stop offset=".874331550802139" stop-color="#255ba9"/>
      <stop offset="1" stop-color="#1f448d"/>
    </linearGradient>
    <linearGradient id="linear-gradient-13" x1="710.037886673861067" y1="296.617832110765448" x2="319.828178267751923" y2="-25.485459017179323" gradientUnits="userSpaceOnUse">
      <stop offset="0" stop-color="#bfe3f8"/>
      <stop offset=".036597262101568" stop-color="#82bee8"/>
      <stop offset=".056894523952301" stop-color="#75b7e5"/>
      <stop offset=".111677570948962" stop-color="#559ad3"/>
      <stop offset=".161051525554712" stop-color="#428bca"/>
      <stop offset=".366867867182655" stop-color="#3878bd"/>
      <stop offset=".741224955287683" stop-color="#255ba9"/>
      <stop offset="1" stop-color="#1f448d"/>
    </linearGradient>
    <linearGradient id="linear-gradient-14" x1="638.475886353733586" y1="383.311101155271899" x2="248.266177947618246" y2="61.207810027321955" gradientUnits="userSpaceOnUse">
      <stop offset="0" stop-color="#bfe3f8"/>
      <stop offset=".139441068811951" stop-color="#75b7e5"/>
      <stop offset=".169563887224095" stop-color="#428bca"/>
      <stop offset=".622456886499374" stop-color="#255ba9"/>
      <stop offset="1" stop-color="#1f448d"/>
    </linearGradient>
    <linearGradient id="linear-gradient-15" x1="535.784538662812338" y1="507.715793507139097" x2="145.574830256709959" y2="185.612502379199896" gradientUnits="userSpaceOnUse">
      <stop offset="0" stop-color="#bfe3f8"/>
      <stop offset=".305535260368796" stop-color="#75b7e5"/>
      <stop offset=".491629375563959" stop-color="#428bca"/>
      <stop offset=".773166688817937" stop-color="#255ba9"/>
      <stop offset=".920884814167447" stop-color="#1f448d"/>
    </linearGradient>
    <linearGradient id="linear-gradient-16" x1="565.452228612763065" y1="421.029331662159166" x2="576.135588185854317" y2="686.510817052799894" gradientUnits="userSpaceOnUse">
      <stop offset=".026009310169374" stop-color="#bfe3f8"/>
      <stop offset=".077132219663939" stop-color="#75b7e5"/>
      <stop offset=".173467888110516" stop-color="#569bd4"/>
      <stop offset=".328961355488275" stop-color="#428bca"/>
      <stop offset=".548084346163637" stop-color="#3b7ec1"/>
      <stop offset=".874331550802139" stop-color="#255ba9"/>
      <stop offset="1" stop-color="#1f448d"/>
    </linearGradient>
    <linearGradient id="linear-gradient-17" x1="608.553023308608317" y1="413.477403656350361" x2="556.850450853064558" y2="658.511999837844883" gradientUnits="userSpaceOnUse">
      <stop offset="0" stop-color="#bfe3f8"/>
      <stop offset=".077923138603948" stop-color="#75b7e5"/>
      <stop offset=".154052516113745" stop-color="#428bca"/>
      <stop offset=".5015173580729" stop-color="#2b65af"/>
      <stop offset=".753858591791869" stop-color="#255ba9"/>
      <stop offset=".856264431576434" stop-color="#2457a3"/>
      <stop offset="1" stop-color="#1f448d"/>
    </linearGradient>
    <linearGradient id="linear-gradient-18" x1="642.093115833105912" y1="364.703166698275709" x2="653.03312126600872" y2="630.518458862545231" gradientUnits="userSpaceOnUse">
      <stop offset=".002228267490902" stop-color="#75b7e5"/>
      <stop offset=".124685836341291" stop-color="#569bd4"/>
      <stop offset=".48612266597192" stop-color="#428bca"/>
      <stop offset=".874331550802139" stop-color="#255ba9"/>
      <stop offset="1" stop-color="#1f448d"/>
    </linearGradient>
    <linearGradient id="linear-gradient-19" x1="675.840440005382334" y1="303.467064675931397" x2="638.13066760310619" y2="579.032926287253758" gradientUnits="userSpaceOnUse">
      <stop offset="0" stop-color="#bfe3f8"/>
      <stop offset=".081245712025674" stop-color="#75b7e5"/>
      <stop offset=".364523766120607" stop-color="#428bca"/>
      <stop offset=".477470342902237" stop-color="#3f85c6"/>
      <stop offset=".822078930269592" stop-color="#3c7fc2"/>
      <stop offset=".999240468834858" stop-color="#255ba9"/>
      <stop offset="1" stop-color="#1f448d"/>
    </linearGradient>
    <linearGradient id="linear-gradient-20" x1="167.371113828261514" y1="361.423376418762928" x2="257.1113342420295" y2="674.445811909542158" gradientUnits="userSpaceOnUse">
      <stop offset="0" stop-color="#bfe3f8"/>
      <stop offset=".305535260368796" stop-color="#75b7e5"/>
      <stop offset=".329697002314199" stop-color="#428bca"/>
      <stop offset=".956520101178629" stop-color="#255ba9"/>
      <stop offset="1" stop-color="#2457a3"/>
      <stop offset="1" stop-color="#1f448d"/>
    </linearGradient>
    <linearGradient id="linear-gradient-21" x1="160.15518588375744" y1="408.890037264302009" x2="257.907925977316665" y2="678.110698505515074" gradientUnits="userSpaceOnUse">
      <stop offset="0" stop-color="#bfe3f8"/>
      <stop offset=".065915375384789" stop-color="#75b7e5"/>
      <stop offset=".17569781395107" stop-color="#428bca"/>
      <stop offset=".500407056467966" stop-color="#2961ad"/>
      <stop offset=".839202796473114" stop-color="#255ba9"/>
      <stop offset=".856264431576434" stop-color="#2457a3"/>
      <stop offset="1" stop-color="#1f448d"/>
    </linearGradient>
    <linearGradient id="linear-gradient-22" x1="650.03070831738296" y1="321.487939449904843" x2="621.608495143894743" y2="610.816693206791456" gradientTransform="translate(787.89291829819922) rotate(-180) scale(1 -1)" gradientUnits="userSpaceOnUse">
      <stop offset="0" stop-color="#bfe3f8"/>
      <stop offset=".109650030333519" stop-color="#75b7e5"/>
      <stop offset=".590977903763884" stop-color="#428bca"/>
      <stop offset=".796898801226638" stop-color="#255ba9"/>
      <stop offset=".856264431576434" stop-color="#2457a3"/>
      <stop offset="1" stop-color="#1f448d"/>
    </linearGradient>
    <linearGradient id="linear-gradient-23" x1="688.98404030356869" y1="308.5981748782051" x2="598.011249856578615" y2="629.469296457307451" gradientTransform="translate(787.89291829819922) rotate(-180) scale(1 -1)" gradientUnits="userSpaceOnUse">
      <stop offset="0" stop-color="#bfe3f8"/>
      <stop offset=".271712759467768" stop-color="#75b7e5"/>
      <stop offset=".539176339268643" stop-color="#5499d3"/>
      <stop offset=".708094471828756" stop-color="#428bca"/>
      <stop offset=".717776638008593" stop-color="#255ba9"/>
      <stop offset=".856264431576434" stop-color="#2457a3"/>
      <stop offset="1" stop-color="#1f448d"/>
    </linearGradient>
  </defs>
  <g>
    <g>
      <polygon class="cls-4" points="395.994542727173211 674.503561556450222 395.994542727173211 708.826086956521976 49.88473728957706 240.300279019049412 75.553786212640262 240.708229513562401 75.53929276656163 240.722811876487867 395.994542727173211 674.503561556450222"/>
      <polygon class="cls-16" points="742.104348164772091 240.300279019049412 395.994542727173211 708.826086956521976 395.994542727173211 674.503561556450222 716.449792687788431 240.722811876487867 716.43529924170798 240.708229513562401 742.104348164772091 240.300279019049412"/>
      <polygon class="cls-18" points="742.104348164772091 240.300279019049412 716.43529924170798 240.708229513562401 620.169030140337782 118.758329126205354 630.04618026719254 98.362938404879969 742.104348164772091 240.300279019049412"/>
      <polygon class="cls-23" points="630.04618026719254 98.362938404879969 620.169030140337782 118.758329126205354 171.82005531401137 118.758329126205354 161.942905187155702 98.362938404879969 630.04618026719254 98.362938404879969"/>
      <polygon class="cls-9" points="171.82005531401137 118.758329126205354 75.553786212640262 240.708229513562401 49.88473728957706 240.300279019049412 161.942905187155702 98.362938404879969 171.82005531401137 118.758329126205354"/>
      <polygon class="cls-6" points="395.994542727173211 576.430946706166651 395.994542727173211 674.503561556450222 75.53929276656163 240.722811876487867 75.553786212640262 240.708229513562401 148.860658389595301 241.888244991479951 395.994542727173211 576.430946706166651"/>
      <polygon class="cls-17" points="716.449792687788431 240.722811876487867 395.994542727173211 674.503561556450222 395.994542727173211 576.430946706166651 643.128427064753851 241.888244991479951 716.43529924170798 240.708229513562401 716.449792687788431 240.722811876487867"/>
      <polygon class="cls-20" points="716.43529924170798 240.708229513562401 643.128427064753851 241.888244991479951 591.921392651258429 177.03087404427697 620.169030140337782 118.758329126205354 716.43529924170798 240.708229513562401"/>
      <polygon class="cls-19" points="620.169030140337782 118.758329126205354 591.921392651258429 177.03087404427697 200.067692803087084 177.03087404427697 171.82005531401137 118.758329126205354 620.169030140337782 118.758329126205354"/>
      <polygon class="cls-22" points="200.067692803087084 177.03087404427697 148.860658389595301 241.888244991479951 75.553786212640262 240.708229513562401 171.82005531401137 118.758329126205354 200.067692803087084 177.03087404427697"/>
      <polygon class="cls-8" points="395.994542727173211 542.108332389247153 395.994542727173211 576.430946706166651 148.860658389595301 241.888244991479951 174.515124949731216 242.296106569144285 395.994542727173211 542.108332389247153"/>
      <polygon class="cls-1" points="643.128427064753851 241.888244991479951 395.994542727173211 576.430946706166651 395.994542727173211 542.108332389247153 617.473960504616116 242.296106569144285 643.128427064753851 241.888244991479951"/>
      <polygon class="cls-10" points="643.128427064753851 241.888244991479951 617.473960504616116 242.296106569144285 582.044242524409128 197.426264765601445 591.921392651258429 177.03087404427697 643.128427064753851 241.888244991479951"/>
      <polygon class="cls-15" points="591.921392651258429 177.03087404427697 582.044242524409128 197.426264765601445 209.944842929940023 197.426264765601445 200.067692803087084 177.03087404427697 591.921392651258429 177.03087404427697"/>
      <polygon class="cls-7" points="209.944842929940023 197.426264765601445 174.515124949731216 242.296106569144285 148.860658389595301 241.888244991479951 200.067692803087084 177.03087404427697 209.944842929940023 197.426264765601445"/>
    </g>
    <g>
      <g>
        <g>
          <polygon class="cls-12" points="628.518370745276115 500.677003204886205 512.74456611495043 598.789879040989035 600.506616942095206 479.985538915685538 628.518370745276115 500.677003204886205"/>
          <polygon class="cls-2" points="644.387611111100341 512.389528916390191 644.387611111100341 512.399777134240139 512.74456611495043 598.789879040989035 628.518370745276115 500.677003204886205 644.387611111100341 512.389528916390191"/>
          <polygon class="cls-21" points="688.278853497959062 361.171013061659323 628.518370745276115 500.677003204886205 600.506616942095206 479.985538915685538 688.278853497959062 361.171013061659323"/>
        </g>
        <polygon class="cls-3" points="688.278853497959062 361.171013061659323 644.387611111100341 512.389528916390191 628.518370745276115 500.677003204886205 688.278853497959062 361.171013061659323"/>
      </g>
      <g>
        <g>
          <polygon class="cls-14" points="163.470714704712009 500.677003194447025 279.244519330632102 598.789879035750346 191.482468508822421 479.985538906505099 163.470714704712009 500.677003194447025"/>
          <polygon class="cls-5" points="147.601474338363914 512.389528905236148 147.601474338362095 512.399777123089734 279.244519330632102 598.789879035750346 163.470714704712009 500.677003194447025 147.601474338363914 512.389528905236148"/>
          <polygon class="cls-13" points="103.710231958294571 361.171013048536224 163.470714704712009 500.677003194447025 191.482468508822421 479.985538906505099 103.710231958294571 361.171013048536224"/>
        </g>
        <polygon class="cls-11" points="103.710231958294571 361.171013048536224 147.601474338363914 512.389528905236148 163.470714704712009 500.677003194447025 103.710231958294571 361.171013048536224"/>
      </g>
    </g>
  </g>
  <g>
    <polygon class="cls-4" points="395.994542727173211 674.503561556450222 395.994542727173211 708.826086956521976 49.88473728957706 240.300279019049412 75.553786212640262 240.708229513562401 75.53929276656163 240.722811876487867 395.994542727173211 674.503561556450222"/>
    <polygon class="cls-16" points="742.104348164772091 240.300279019049412 395.994542727173211 708.826086956521976 395.994542727173211 674.503561556450222 716.449792687788431 240.722811876487867 716.43529924170798 240.708229513562401 742.104348164772091 240.300279019049412"/>
    <polygon class="cls-18" points="742.104348164772091 240.300279019049412 716.43529924170798 240.708229513562401 620.169030140337782 118.758329126205354 630.04618026719254 98.362938404879969 742.104348164772091 240.300279019049412"/>
    <polygon class="cls-23" points="630.04618026719254 98.362938404879969 620.169030140337782 118.758329126205354 171.82005531401137 118.758329126205354 161.942905187155702 98.362938404879969 630.04618026719254 98.362938404879969"/>
    <polygon class="cls-9" points="171.82005531401137 118.758329126205354 75.553786212640262 240.708229513562401 49.88473728957706 240.300279019049412 161.942905187155702 98.362938404879969 171.82005531401137 118.758329126205354"/>
    <polygon class="cls-6" points="395.994542727173211 576.430946706166651 395.994542727173211 674.503561556450222 75.53929276656163 240.722811876487867 75.553786212640262 240.708229513562401 148.860658389595301 241.888244991479951 395.994542727173211 576.430946706166651"/>
    <polygon class="cls-17" points="716.449792687788431 240.722811876487867 395.994542727173211 674.503561556450222 395.994542727173211 576.430946706166651 643.128427064753851 241.888244991479951 716.43529924170798 240.708229513562401 716.449792687788431 240.722811876487867"/>
    <polygon class="cls-20" points="716.43529924170798 240.708229513562401 643.128427064753851 241.888244991479951 591.921392651258429 177.03087404427697 620.169030140337782 118.758329126205354 716.43529924170798 240.708229513562401"/>
    <polygon class="cls-19" points="620.169030140337782 118.758329126205354 591.921392651258429 177.03087404427697 200.067692803087084 177.03087404427697 171.82005531401137 118.758329126205354 620.169030140337782 118.758329126205354"/>
    <polygon class="cls-22" points="200.067692803087084 177.03087404427697 148.860658389595301 241.888244991479951 75.553786212640262 240.708229513562401 171.82005531401137 118.758329126205354 200.067692803087084 177.03087404427697"/>
    <polygon class="cls-8" points="395.994542727173211 542.108332389247153 395.994542727173211 576.430946706166651 148.860658389595301 241.888244991479951 174.515124949731216 242.296106569144285 395.994542727173211 542.108332389247153"/>
    <polygon class="cls-1" points="643.128427064753851 241.888244991479951 395.994542727173211 576.430946706166651 395.994542727173211 542.108332389247153 617.473960504616116 242.296106569144285 643.128427064753851 241.888244991479951"/>
    <polygon class="cls-10" points="643.128427064753851 241.888244991479951 617.473960504616116 242.296106569144285 582.044242524409128 197.426264765601445 591.921392651258429 177.03087404427697 643.128427064753851 241.888244991479951"/>
    <polygon class="cls-15" points="591.921392651258429 177.03087404427697 582.044242524409128 197.426264765601445 209.944842929940023 197.426264765601445 200.067692803087084 177.03087404427697 591.921392651258429 177.03087404427697"/>
    <polygon class="cls-7" points="209.944842929940023 197.426264765601445 174.515124949731216 242.296106569144285 148.860658389595301 241.888244991479951 200.067692803087084 177.03087404427697 209.944842929940023 197.426264765601445"/>
  </g>
</svg>