<?xml version="1.0" encoding="UTF-8"?>
<svg id="Layer_11" data-name="Layer 11" xmlns="http://www.w3.org/2000/svg" xmlns:xlink="http://www.w3.org/1999/xlink" viewBox="0 0 792 792">
  <defs>
    <style>
      .cls-1 {
        fill: url(#linear-gradient);
      }

      .cls-1, .cls-2, .cls-3, .cls-4, .cls-5 {
        stroke-width: 0px;
      }

      .cls-2 {
        fill: #afaeae;
      }

      .cls-3 {
        fill: url(#linear-gradient-2);
      }

      .cls-4 {
        fill: url(#linear-gradient-3);
      }

      .cls-5 {
        fill: url(#linear-gradient-4);
      }
    </style>
    <linearGradient id="linear-gradient" x1="213.860609119761648" y1="392.22155083808866" x2="481.27661440674683" y2="407.317615652675045" gradientUnits="userSpaceOnUse">
      <stop offset="0" stop-color="#e3e3e3"/>
      <stop offset=".358830125175384" stop-color="#818182"/>
      <stop offset=".596522530132437" stop-color="#6b6b6b"/>
      <stop offset=".807224714096236" stop-color="#494848"/>
      <stop offset="1" stop-color="#313131"/>
    </linearGradient>
    <linearGradient id="linear-gradient-2" x1="181.605860964982639" y1="80.309948704741146" x2="594.591062678487901" y2="1394.745877917835969" gradientUnits="userSpaceOnUse">
      <stop offset="0" stop-color="#e3e3e3"/>
      <stop offset=".305535260368796" stop-color="#818182"/>
      <stop offset=".596522530132437" stop-color="#6b6b6b"/>
      <stop offset=".807224714096236" stop-color="#494848"/>
      <stop offset="1" stop-color="#313131"/>
    </linearGradient>
    <linearGradient id="linear-gradient-3" x1="444.274334858178918" y1="392.22155083808957" x2="711.690340145167738" y2="407.317615652676125" xlink:href="#linear-gradient"/>
    <linearGradient id="linear-gradient-4" x1="412.019586703401728" y1="80.309948704740236" x2="825.00478841690699" y2="1394.74587791783506" xlink:href="#linear-gradient-2"/>
  </defs>
  <g>
    <polygon class="cls-1" points="330.394492950150379 98.391865083819539 330.394492950150379 693.608134916183189 314.770056896899405 677.983698862928577 246.816217364679687 677.983698862928577 231.191781311430532 693.608134916183189 231.191781311430532 98.391865083819539 246.816217364679687 114.016301137071423 314.770056896899405 114.016301137071423 330.394492950150379 98.391865083819539"/>
    <polygon class="cls-3" points="314.770056896899405 677.983698862928577 330.394492950150379 693.608134916183189 231.191781311430532 693.608134916183189 246.816217364679687 677.983698862928577 246.816217364679687 114.016301137071423 231.191781311430532 98.391865083819539 330.394492950150379 98.391865083819539 314.770056896899405 114.016301137071423 314.770056896899405 677.983698862928577"/>
    <rect class="cls-2" x="246.816217364679687" y="114.016301137071423" width="67.953839532219718" height="563.967397725857154"/>
  </g>
  <g>
    <polygon class="cls-4" points="560.808218688569468 98.391865083819539 560.808218688569468 693.608134916183189 545.183782635320313 677.983698862928577 477.229943103100595 677.983698862928577 461.605507049849621 693.608134916183189 461.605507049849621 98.391865083819539 477.229943103100595 114.016301137071423 545.183782635320313 114.016301137071423 560.808218688569468 98.391865083819539"/>
    <polygon class="cls-5" points="545.183782635320313 677.983698862928577 560.808218688569468 693.608134916183189 461.605507049849621 693.608134916183189 477.229943103100595 677.983698862928577 477.229943103100595 114.016301137071423 461.605507049849621 98.391865083819539 560.808218688569468 98.391865083819539 545.183782635320313 114.016301137071423 545.183782635320313 677.983698862928577"/>
    <rect class="cls-2" x="477.229943103100595" y="114.016301137071423" width="67.953839532219718" height="563.967397725857154"/>
  </g>
</svg>