<?xml version="1.0" encoding="UTF-8"?>
<svg id="Layer_11" data-name="Layer 11" xmlns="http://www.w3.org/2000/svg" xmlns:xlink="http://www.w3.org/1999/xlink" viewBox="0 0 792 792">
  <defs>
    <style>
      .cls-1 {
        fill: url(#linear-gradient);
      }

      .cls-1, .cls-2, .cls-3, .cls-4, .cls-5, .cls-6, .cls-7 {
        stroke-width: 0px;
      }

      .cls-2 {
        fill: url(#linear-gradient-6);
      }

      .cls-3 {
        fill: url(#linear-gradient-5);
      }

      .cls-4 {
        fill: #afaeae;
      }

      .cls-5 {
        fill: url(#linear-gradient-2);
      }

      .cls-6 {
        fill: url(#linear-gradient-3);
      }

      .cls-7 {
        fill: url(#linear-gradient-4);
      }
    </style>
    <linearGradient id="linear-gradient" x1="313.228476810776556" y1="391.32741401351268" x2="643.926132203856469" y2="409.995830043765295" gradientUnits="userSpaceOnUse">
      <stop offset="0" stop-color="#e3e3e3"/>
      <stop offset=".358830125175384" stop-color="#818182"/>
      <stop offset=".596522530132437" stop-color="#6b6b6b"/>
      <stop offset=".807224714096236" stop-color="#494848"/>
      <stop offset="1" stop-color="#313131"/>
    </linearGradient>
    <linearGradient id="linear-gradient-2" x1="273.340925657545995" y1="5.604669390593699" x2="784.055449913943676" y2="1631.090322310609736" gradientUnits="userSpaceOnUse">
      <stop offset="0" stop-color="#e3e3e3"/>
      <stop offset=".305535260368796" stop-color="#818182"/>
      <stop offset=".596522530132437" stop-color="#6b6b6b"/>
      <stop offset=".807224714096236" stop-color="#494848"/>
      <stop offset="1" stop-color="#313131"/>
    </linearGradient>
    <linearGradient id="linear-gradient-3" x1="168.387903558819744" y1="392.221585502930793" x2="435.803908845808621" y2="407.317650317517348" xlink:href="#linear-gradient"/>
    <linearGradient id="linear-gradient-4" x1="136.133155404041645" y1="80.309983369584188" x2="549.118357117545656" y2="1394.745912582674919" xlink:href="#linear-gradient-2"/>
    <linearGradient id="linear-gradient-5" x1="489.747040419108089" y1="392.221585502931703" x2="757.163045706115327" y2="407.317650317519281" xlink:href="#linear-gradient"/>
    <linearGradient id="linear-gradient-6" x1="457.492292264336356" y1="80.309983369583279" x2="870.477493977841618" y2="1394.745912582678102" xlink:href="#linear-gradient-2"/>
  </defs>
  <g>
    <polygon class="cls-1" points="457.339081242260363 27.965512546401442 457.339081242260363 764.034487453598558 438.017259558089791 744.712665769424348 353.982740441910209 744.712665769424348 334.660918757730542 764.034487453598558 334.660918757730542 27.965512546401442 353.982740441910209 47.287334230576562 438.017259558089791 47.287334230576562 457.339081242260363 27.965512546401442"/>
    <polygon class="cls-5" points="438.017259558089791 744.712665769424348 457.339081242260363 764.034487453598558 334.660918757730542 764.034487453598558 353.982740441910209 744.712665769424348 353.982740441910209 47.287334230576562 334.660918757730542 27.965512546401442 457.339081242260363 27.965512546401442 438.017259558089791 47.287334230576562 438.017259558089791 744.712665769424348"/>
    <rect class="cls-4" x="353.982740441910209" y="47.287334230576562" width="84.034519116179581" height="697.425331538847786"/>
  </g>
  <g>
    <g>
      <polygon class="cls-6" points="284.921787389210294 98.391899748662581 284.921787389210294 693.608169581024413 269.297351335970234 677.9837335277698 201.343511803739602 677.9837335277698 185.719075750490447 693.608169581024413 185.719075750490447 98.391899748662581 201.343511803739602 114.016335801913556 269.297351335970234 114.016335801913556 284.921787389210294 98.391899748662581"/>
      <polygon class="cls-7" points="269.297351335970234 677.9837335277698 284.921787389210294 693.608169581024413 185.719075750490447 693.608169581024413 201.343511803739602 677.9837335277698 201.343511803739602 114.016335801913556 185.719075750490447 98.391899748662581 284.921787389210294 98.391899748662581 269.297351335970234 114.016335801913556 269.297351335970234 677.9837335277698"/>
      <rect class="cls-4" x="201.343511803739602" y="114.016335801913556" width="67.953839532230631" height="563.967397725856245"/>
    </g>
    <g>
      <polygon class="cls-3" points="606.280924249509553 98.391899748662581 606.280924249509553 693.608169581024413 590.656488196249484 677.9837335277698 522.702648664029766 677.9837335277698 507.078212610780611 693.608169581024413 507.078212610780611 98.391899748662581 522.702648664029766 114.016335801913556 590.656488196249484 114.016335801913556 606.280924249509553 98.391899748662581"/>
      <polygon class="cls-2" points="590.656488196249484 677.9837335277698 606.280924249509553 693.608169581024413 507.078212610780611 693.608169581024413 522.702648664029766 677.9837335277698 522.702648664029766 114.016335801913556 507.078212610780611 98.391899748662581 606.280924249509553 98.391899748662581 590.656488196249484 114.016335801913556 590.656488196249484 677.9837335277698"/>
      <rect class="cls-4" x="522.702648664029766" y="114.016335801913556" width="67.953839532219718" height="563.967397725856245"/>
    </g>
  </g>
</svg>